<?xml version="1.0" standalone="no"?>
<!DOCTYPE svg PUBLIC "-//W3C//DTD SVG 20010904//EN"
 "http://www.w3.org/TR/2001/REC-SVG-20010904/DTD/svg10.dtd">
<svg version="1.0" xmlns="http://www.w3.org/2000/svg"
 width="612.000000pt" height="408.000000pt" viewBox="0 0 612.000000 408.000000"
 preserveAspectRatio="xMidYMid meet">

<g transform="translate(0.000000,408.000000) scale(0.100000,-0.100000)"
fill="#000000" stroke="none">
<path d="M3735 1657 c-4 -11 -5 -181 -1 -378 l8 -359 -50 0 -50 0 -1 243 c-2
322 -7 476 -15 484 -3 3 -6 -9 -7 -28 0 -19 -4 -43 -8 -54 -6 -15 -10 -5 -15
38 -7 56 -26 80 -26 33 0 -13 -7 -29 -15 -36 -17 -14 -20 -46 -5 -55 6 -4 9
-14 8 -23 -2 -10 6 -18 22 -22 25 -6 25 -7 31 -140 4 -74 10 -319 14 -545 7
-406 7 -410 -14 -429 -33 -30 -68 -15 -82 37 -13 47 -23 409 -22 775 0 151 -3
242 -9 242 -6 0 -7 11 -4 26 6 21 4 25 -11 22 -17 -3 -18 -19 -13 -258 3 -140
5 -309 5 -375 l0 -120 -61 -3 -61 -3 -6 233 c-10 340 -9 538 3 538 6 0 10 5
10 10 0 6 -5 10 -11 10 -12 0 -40 -26 -34 -31 2 -2 9 -250 16 -552 12 -500 12
-549 -3 -563 -20 -20 -63 -12 -76 14 -5 9 -15 249 -21 532 -7 283 -15 522 -17
530 -4 13 -6 13 -15 0 -5 -9 -7 -61 -4 -120 11 -247 16 -600 9 -600 -13 0 -1
-334 12 -351 7 -8 14 -74 18 -159 3 -80 6 -147 7 -150 1 -3 5 18 9 45 6 45 7
43 8 -32 l2 -83 58 0 57 0 -3 171 c-2 113 0 175 7 182 8 8 11 -42 11 -171 l0
-182 26 0 27 0 -7 223 c-3 122 -7 283 -8 357 l-1 135 25 3 25 3 5 -153 c3 -85
9 -162 15 -172 5 -9 21 -23 34 -29 23 -12 24 -16 30 -167 4 -85 7 -165 8 -177
1 -19 7 -23 37 -23 l36 0 -4 179 c-2 99 0 177 5 174 4 -2 7 -69 7 -147 0 -182
4 -206 37 -206 l25 0 -6 128 c-10 219 -18 740 -11 761 3 12 14 21 24 21 15 0
19 -12 25 -77 3 -42 6 -112 6 -157 1 -51 5 -87 14 -98 18 -24 41 -24 30 -1
-11 26 -21 264 -28 678 -6 348 -14 444 -31 402z m-345 -1128 c0 -86 -4 -148
-9 -145 -13 8 -14 296 -1 296 6 0 10 -56 10 -151z"/>
<path d="M4148 1649 c-10 -5 -18 -16 -18 -23 0 -13 -27 -31 -41 -28 -4 1 -9
-8 -12 -19 -4 -16 2 -24 29 -35 19 -8 34 -20 34 -27 1 -6 7 -244 14 -527 14
-532 13 -560 -24 -568 -9 -1 -24 4 -35 12 -19 14 -20 32 -28 343 -13 569 -21
766 -32 770 -6 2 -19 -3 -29 -10 -16 -12 -17 -33 -8 -377 6 -201 7 -368 4
-372 -4 -3 -19 -4 -34 -1 l-26 5 -2 227 c-2 337 -7 558 -14 569 -3 6 -16 8
-27 5 l-22 -6 7 -361 c4 -199 9 -417 12 -486 6 -139 -2 -177 -38 -182 -20 -3
-23 -9 -22 -43 0 -22 1 -147 2 -277 l2 -238 32 0 31 0 -6 270 c-3 149 -2 270
3 270 5 0 9 -84 10 -188 1 -103 3 -200 4 -217 1 -16 3 -54 4 -82 2 -50 4 -53
28 -53 l26 0 -6 243 c-8 352 -9 504 -1 516 5 9 43 16 46 9 0 -2 4 -77 7 -166
7 -154 8 -165 30 -182 12 -10 27 -20 32 -22 8 -3 17 -165 19 -345 l1 -53 36 0
37 0 -6 194 c-4 107 -3 197 2 200 14 9 21 -62 21 -231 l0 -163 26 0 27 0 -7
416 -7 415 28 -3 28 -3 5 -155 c3 -85 9 -162 13 -171 5 -9 19 -22 33 -29 23
-13 24 -17 24 -120 0 -59 3 -162 7 -228 l6 -122 34 0 33 0 0 236 c0 154 3 233
10 229 6 -4 10 -93 10 -236 l0 -229 26 0 25 0 -2 402 -2 403 25 3 c24 3 25 0
31 -65 4 -37 7 -107 7 -155 0 -93 12 -134 42 -143 10 -4 19 -12 19 -18 5 -37
6 -69 7 -239 l2 -188 30 0 30 0 1 203 c1 111 3 209 4 217 1 8 3 20 4 25 1 6 6
3 11 -5 5 -8 10 -108 10 -227 l0 -213 25 0 26 0 -1 376 c-1 207 1 378 4 381 3
3 1 14 -5 24 -8 16 -6 21 13 29 21 8 20 9 -9 9 l-33 1 0 400 0 400 -39 0 c-30
0 -40 -4 -44 -20 -3 -13 -11 -18 -20 -14 -9 3 -14 11 -11 18 5 13 -63 42 -74
31 -4 -4 -7 -186 -7 -406 1 -320 -2 -399 -12 -399 -10 0 -13 53 -13 253 0 140
-3 323 -7 407 l-6 152 -50 -5 c-52 -5 -69 -19 -62 -52 2 -11 7 -157 11 -325 3
-168 8 -332 9 -365 7 -115 7 -384 0 -395 -11 -18 -44 -11 -59 13 -11 17 -16
128 -26 552 -7 292 -16 535 -21 541 -5 6 -6 14 -2 17 3 4 -2 7 -13 7 -41 0
-43 -21 -34 -351 13 -447 13 -429 -8 -429 -10 0 -18 8 -19 18 0 9 -3 175 -7
367 -4 193 -9 364 -12 382 -6 41 -38 54 -76 32z m494 -627 c2 -298 1 -537 -3
-530 -11 22 -22 1094 -10 1083 6 -6 11 -210 13 -553z m35 486 c-2 -13 -4 -5
-4 17 -1 22 1 32 4 23 2 -10 2 -28 0 -40z m0 -110 c-3 -8 -6 -5 -6 6 -1 11 2
17 5 13 3 -3 4 -12 1 -19z m10 -740 c-2 -13 -4 -3 -4 22 0 25 2 35 4 23 2 -13
2 -33 0 -45z m3 -128 c0 -33 -3 -60 -7 -60 -5 0 -6 27 -5 60 5 77 12 77 12 0z"/>
<path d="M2763 1583 c-7 -2 -13 -19 -13 -36 0 -22 -3 -28 -11 -20 -11 11 -48
6 -50 -6 -7 -61 -19 -90 -34 -85 -11 4 -15 -1 -15 -16 0 -13 -7 -28 -16 -34
-14 -11 -15 -47 -5 -376 10 -329 10 -382 -3 -369 -2 2 -7 164 -11 359 -4 195
-9 362 -11 370 -1 8 -3 30 -3 48 -1 32 -2 33 -38 26 -21 -3 -47 -16 -58 -28
-11 -12 -32 -30 -47 -39 -23 -15 -28 -15 -28 -3 0 19 -9 24 -57 32 l-40 6 3
-68 c1 -38 5 -170 8 -294 4 -124 9 -276 12 -337 6 -97 5 -113 -8 -113 -12 0
-16 17 -17 88 -1 48 -6 204 -11 347 -5 143 -10 286 -10 318 l0 57 -36 0 c-34
0 -73 -14 -84 -31 -7 -11 -102 25 -99 37 1 5 -9 15 -22 21 -27 14 -63 17 -55
5 2 -4 11 -154 20 -332 9 -179 18 -358 22 -397 5 -61 3 -73 -9 -73 -11 0 -17
15 -21 53 -8 71 -31 584 -31 680 0 77 0 77 -27 77 -42 0 -74 -16 -119 -60 -42
-40 -73 -53 -63 -25 6 16 -31 35 -66 35 -16 0 -19 -5 -15 -27 4 -22 39 -561
48 -738 2 -29 -2 -40 -15 -43 -18 -3 -15 -33 -43 429 -8 135 -15 276 -15 313
l0 69 -52 -7 c-29 -4 -59 -7 -65 -8 -15 -2 -16 -28 -3 -83 5 -22 13 -107 16
-190 3 -82 8 -153 10 -156 2 -4 6 -64 9 -135 3 -71 8 -149 10 -174 3 -25 8
-100 11 -167 5 -117 5 -122 -16 -133 -17 -9 -26 -8 -45 4 -29 19 -28 9 -55
511 -36 644 -35 605 -19 606 8 0 3 4 -9 10 -28 11 -42 4 -42 -20 0 -9 -5 -22
-11 -28 -7 -7 -5 -77 5 -234 8 -123 18 -273 21 -334 3 -60 8 -125 11 -142 4
-25 1 -33 -11 -33 -11 0 -15 12 -16 48 -1 26 -2 63 -4 82 -1 19 -7 139 -14
265 -6 127 -13 257 -15 290 -2 33 -4 72 -5 88 -1 23 -5 27 -30 27 -52 0 -61
-8 -62 -59 -1 -30 -3 -39 -7 -25 -6 17 -11 20 -29 13 -17 -6 -23 -16 -23 -38
0 -33 -25 -50 -33 -21 -3 13 -17 19 -48 22 -24 3 -45 4 -45 4 -1 -1 14 -179
32 -396 18 -217 34 -398 34 -402 0 -5 -9 -8 -19 -8 -21 0 -19 -15 -40 260 -6
74 -18 227 -28 339 l-17 203 -43 -5 c-24 -2 -52 -12 -63 -22 -13 -12 -32 -16
-72 -13 -47 3 -53 1 -54 -17 0 -11 -4 -29 -9 -39 -5 -11 3 -158 18 -350 27
-329 31 -404 22 -395 -4 5 -11 84 -40 479 -8 113 -17 231 -21 263 l-6 57 -36
0 c-44 0 -58 -8 -63 -34 -5 -26 -26 -32 -32 -9 -8 30 11 -216 38 -482 56 -567
54 -515 17 -515 -42 0 -52 31 -68 210 -8 85 -23 245 -34 355 -10 110 -24 259
-30 330 -17 200 -18 205 -46 205 -32 0 -34 30 21 -496 14 -135 23 -249 21
-253 -5 -7 -68 -18 -133 -23 -15 -2 -15 -6 -3 -127 17 -163 17 -191 -5 -207
-28 -21 -61 -17 -82 10 -15 19 -22 55 -32 168 -15 166 -15 170 -35 162 -8 -3
-13 -11 -11 -17 3 -7 12 -75 20 -151 16 -145 27 -178 69 -197 21 -10 24 -20
29 -102 4 -51 10 -109 13 -130 7 -36 7 -37 52 -37 l45 0 -6 68 c-15 158 -14
206 1 75 l16 -143 33 0 34 0 -6 47 c-17 150 -44 448 -47 518 -3 58 -2 60 23
63 26 3 27 2 38 -90 6 -51 14 -122 17 -158 6 -52 13 -70 34 -92 25 -25 28 -37
40 -157 l12 -131 49 0 48 0 4 63 3 62 2 -62 2 -63 34 0 c27 0 33 4 30 17 -2
10 -10 115 -19 233 -9 118 -17 223 -18 234 -2 18 27 45 37 35 3 -3 12 -70 19
-150 16 -165 24 -189 68 -189 35 0 36 -2 44 -102 l7 -78 35 0 35 0 -7 68 c-3
37 -8 78 -11 90 -3 13 -1 21 4 18 5 -3 13 -44 17 -91 l7 -85 35 0 c32 0 34 2
29 27 -3 16 -8 66 -11 113 -6 94 -15 196 -30 351 -7 66 -7 66 20 73 16 4 31 3
36 -1 4 -4 13 -71 19 -148 7 -77 18 -158 25 -180 7 -22 16 -84 20 -137 l7 -98
66 0 65 0 -6 108 c-3 59 -2 94 3 77 4 -16 8 -65 9 -107 l1 -78 31 0 32 0 -7
68 c-3 37 -8 128 -11 202 -3 74 -11 184 -16 243 -12 122 -8 157 20 157 22 0
30 -39 32 -140 1 -141 24 -209 63 -194 24 9 33 -22 40 -131 4 -60 9 -131 13
-158 5 -44 7 -47 35 -47 l29 0 -6 153 c-4 83 -9 159 -11 167 -4 10 -2 12 5 5
6 -6 14 -81 17 -168 l7 -157 33 0 32 0 -4 53 c-2 28 -8 133 -14 232 -7 99 -13
203 -15 230 -3 53 5 65 42 65 24 0 27 -16 39 -195 7 -110 12 -129 43 -164 17
-20 21 -37 21 -100 0 -117 3 -121 64 -121 l52 0 -3 113 c-2 74 0 105 6 92 5
-11 10 -62 10 -112 l1 -93 30 0 c30 0 30 0 26 48 -3 26 -8 115 -11 197 -2 83
-8 201 -11 263 l-6 113 34 -3 33 -3 11 -164 c10 -146 13 -166 32 -181 17 -14
22 -36 31 -125 6 -60 11 -117 11 -127 0 -15 8 -18 53 -18 l52 0 -1 132 c-1
103 0 120 6 73 4 -33 8 -93 9 -132 1 -73 1 -73 29 -73 l27 0 -7 157 c-3 87 -8
216 -10 288 l-3 130 31 3 31 3 8 -157 c7 -162 15 -200 46 -209 14 -5 18 -23
24 -110 l7 -105 44 0 43 0 4 108 3 107 2 -107 2 -108 30 0 31 0 -6 218 c-4
119 -8 244 -10 277 -4 81 3 115 25 115 25 0 30 -27 30 -170 0 -138 10 -173 50
-179 14 -1 28 -8 32 -15 4 -6 8 -64 8 -128 l0 -118 31 0 32 0 -7 133 c-4 89
-3 127 4 117 5 -8 10 -68 10 -132 l0 -118 30 0 30 0 -5 173 c-4 151 -16 553
-17 567 -1 20 4 29 20 33 11 3 7 5 -10 6 -15 0 -29 4 -32 9 -2 4 -7 156 -11
337 -4 182 -9 348 -11 370 -1 22 -3 52 -3 68 -1 27 -5 30 -28 20z m-58 -203
c4 -6 10 -8 15 -5 11 7 18 -70 11 -125 -5 -41 -7 -37 -12 35 -5 75 -5 73 -6
-35 0 -63 3 -99 6 -80 6 32 7 33 12 10 4 -14 3 -52 -1 -85 -7 -56 -7 -57 -9
-16 0 24 -4 42 -7 38 -3 -3 -1 -150 6 -327 8 -244 14 -326 24 -336 9 -9 13
-35 11 -78 -1 -40 2 -63 8 -59 6 4 8 88 4 227 -3 139 -2 188 3 131 4 -49 8
-156 9 -236 1 -120 -2 -149 -14 -159 -21 -18 -63 2 -69 32 -5 24 -26 839 -26
991 0 69 3 87 14 87 8 0 18 -5 21 -10z m-608 -122 c-2 -24 -4 -7 -4 37 0 44 2
63 4 43 2 -21 2 -57 0 -80z m-297 -143 c5 -88 17 -281 25 -430 9 -148 19 -290
23 -315 4 -25 5 -57 1 -70 -10 -39 -15 22 -44 515 -22 391 -30 601 -19 490 2
-16 8 -102 14 -190z m607 73 c-2 -29 -3 -8 -3 47 0 55 1 79 3 53 2 -26 2 -71
0 -100z m-1220 95 c-3 -10 -5 -4 -5 12 0 17 2 24 5 18 2 -7 2 -21 0 -30z
m-278 -138 c6 -71 20 -231 31 -354 11 -123 25 -291 30 -375 12 -181 16 -203
38 -209 12 -3 11 -5 -5 -6 -36 -2 -50 35 -58 149 -3 58 -19 281 -36 495 -32
432 -33 453 -20 440 5 -6 14 -68 20 -140z m288 28 c-2 -16 -4 -3 -4 27 0 30 2
43 4 28 2 -16 2 -40 0 -55z m1560 -30 c-3 -10 -5 -4 -5 12 0 17 2 24 5 18 2
-7 2 -21 0 -30z m-650 -70 c-2 -21 -4 -6 -4 32 0 39 2 55 4 38 2 -18 2 -50 0
-70z m-900 -20 c-2 -16 -4 -5 -4 22 0 28 2 40 4 28 2 -13 2 -35 0 -50z m1550
5 c-2 -13 -4 -3 -4 22 0 25 2 35 4 23 2 -13 2 -33 0 -45z m-340 -155 c-2 -27
-3 -5 -3 47 0 52 1 74 3 48 2 -27 2 -69 0 -95z m-1162 -363 c10 -138 22 -238
30 -257 9 -19 10 -33 5 -33 -6 0 -15 10 -20 23 -8 19 -43 452 -55 672 -7 135
22 -162 40 -405z m1502 428 c-3 -8 -6 -5 -6 6 -1 11 2 17 5 13 3 -3 4 -12 1
-19z m-640 -100 c-2 -18 -4 -4 -4 32 0 36 2 50 4 33 2 -18 2 -48 0 -65z m620
-30 c-2 -24 -4 -5 -4 42 0 47 2 66 4 43 2 -24 2 -62 0 -85z m-310 -190 c-2
-29 -3 -6 -3 52 0 58 1 81 3 53 2 -29 2 -77 0 -105z m-300 10 c-2 -24 -4 -7
-4 37 0 44 2 63 4 43 2 -21 2 -57 0 -80z m610 60 c-3 -8 -6 -5 -6 6 -1 11 2
17 5 13 3 -3 4 -12 1 -19z m15 -105 c2 -38 0 -84 -3 -103 -5 -26 -7 -17 -8 36
0 39 -4 86 -7 103 -4 19 -2 31 4 31 6 0 12 -30 14 -67z m-2250 -167 c8 -97 8
-140 1 -147 -16 -16 -30 61 -39 201 -6 108 -5 114 11 99 12 -12 19 -48 27
-153z m1640 -6 c2 -69 1 -114 -3 -100 -4 14 -7 77 -7 140 0 145 6 124 10 -40z
m295 -92 c-2 -35 -3 -7 -3 62 0 69 1 97 3 63 2 -35 2 -91 0 -125z m-1640 -190
c-2 -18 -4 -6 -4 27 0 33 2 48 4 33 2 -15 2 -42 0 -60z"/>
<path d="M2732 390 c0 -19 2 -27 5 -17 2 9 2 25 0 35 -3 9 -5 1 -5 -18z"/>
<path d="M4863 1554 c-3 -8 -3 -177 -1 -374 5 -322 4 -359 -11 -365 -13 -5
-13 -7 -1 -15 12 -7 14 -30 12 -107 -3 -106 13 -246 28 -251 6 -2 10 -90 10
-223 l0 -219 50 0 50 0 0 193 c0 198 5 241 24 234 7 -3 11 -58 13 -173 2 -272
0 -254 23 -254 19 0 20 7 20 108 0 307 7 639 13 649 7 11 -22 23 -60 23 -14 0
-21 5 -18 13 2 6 6 180 8 384 4 305 2 375 -9 384 -10 8 -15 8 -19 -2 -3 -8 -6
-259 -8 -559 -2 -537 -2 -545 -22 -548 -11 -1 -28 3 -39 11 -17 12 -18 40 -17
560 l2 547 -21 0 c-11 0 -23 -7 -27 -16z m177 -886 c0 -28 -3 -48 -7 -44 -5 4
-8 29 -8 56 0 26 3 46 8 43 4 -2 7 -27 7 -55z"/>
<path d="M2883 1533 c-4 -9 -1 -179 5 -377 8 -258 8 -362 1 -367 -7 -4 -7 -9
-2 -12 6 -4 13 -75 17 -159 7 -158 16 -190 54 -202 16 -6 20 -21 25 -113 4
-58 7 -150 7 -205 l0 -98 41 0 41 0 -6 213 c-4 129 -3 207 3 198 5 -8 9 -71
10 -140 1 -69 4 -159 8 -198 5 -69 7 -73 31 -73 l25 0 -8 357 c-4 197 -9 361
-12 366 -2 4 -15 7 -27 7 -29 0 -33 20 -35 180 -3 318 -15 610 -24 610 -7 0
-8 -68 -4 -197 4 -109 10 -347 14 -530 7 -356 6 -363 -43 -363 -48 0 -50 17
-64 570 -7 283 -17 523 -22 533 -11 22 -27 22 -35 0z"/>
<path d="M5170 1147 c0 -200 -3 -366 -6 -370 -10 -10 -4 -335 7 -366 6 -16 17
-32 25 -35 12 -5 13 -34 8 -191 l-7 -185 41 0 42 0 0 195 c0 107 3 195 6 195
3 0 14 -5 25 -10 18 -10 19 -23 19 -195 l0 -185 25 0 25 0 0 318 c0 174 3 327
6 340 5 17 14 22 39 22 l33 0 7 -340 c6 -279 10 -340 21 -340 11 0 14 25 15
118 0 64 4 126 9 137 6 12 7 -34 3 -117 l-6 -138 40 0 40 0 6 141 c5 131 15
175 34 155 5 -4 8 -73 7 -152 l-1 -144 27 0 c21 0 29 6 33 23 4 12 7 140 7
285 2 246 3 263 21 272 10 6 30 8 44 4 l25 -6 0 -177 c0 -117 4 -171 10 -161
5 8 10 51 10 95 0 59 3 76 11 68 7 -7 11 -40 10 -80 -2 -76 14 -111 44 -100
12 5 15 14 11 30 -4 12 -8 63 -11 112 -3 65 -2 80 5 55 6 -23 8 39 5 175 -2
126 0 192 5 165 5 -26 7 87 5 265 -2 171 0 288 4 260 l8 -50 1 50 c2 65 -5 75
-54 72 -37 -2 -39 -1 -39 27 0 16 -6 31 -12 33 -10 4 -13 -22 -14 -104 0 -59
-2 -119 -4 -133 -1 -14 -4 -148 -6 -297 -4 -255 -5 -273 -22 -273 -17 0 -18
18 -12 348 3 191 8 376 11 411 l5 64 -76 -6 c-42 -4 -81 -9 -86 -13 -5 -3 -9
-202 -9 -473 0 -502 -5 -621 -26 -621 -27 0 -37 70 -30 204 3 72 6 309 6 526
l1 395 -28 -3 c-15 -2 -31 -7 -35 -11 -4 -4 -9 -172 -10 -374 l-3 -367 -33 0
-33 0 2 408 2 407 -28 3 c-15 2 -38 1 -51 -2 l-24 -6 0 -523 c0 -287 -3 -532
-6 -544 -11 -42 -76 -42 -91 0 -4 12 -8 258 -8 546 0 411 -3 525 -12 528 -10
4 -13 -73 -13 -360z m682 -214 c-5 -311 -15 -446 -31 -451 -11 -4 -13 6 -8 51
3 30 8 173 11 317 3 144 8 266 11 271 17 26 20 -8 17 -188z m-507 -281 c16
-11 13 -231 -3 -237 -24 -9 -34 46 -27 148 7 95 10 104 30 89z"/>
<path d="M394 1416 c-3 -9 -3 -24 1 -33 4 -10 9 -27 10 -38 6 -49 25 -232 31
-298 3 -40 9 -90 13 -112 5 -22 8 -49 9 -60 0 -72 16 -235 22 -235 11 0 20 28
15 43 -3 6 -7 59 -10 117 -3 58 -12 175 -20 260 -8 85 -17 191 -20 235 -3 44
-7 91 -9 105 -3 28 -33 40 -42 16z"/>
<path d="M366 1378 c-5 -10 7 -154 25 -320 18 -166 34 -297 37 -290 4 13 -36
500 -47 577 -6 35 -10 45 -15 33z"/>
<path d="M47 1203 c1 -49 7 -140 13 -203 6 -63 14 -152 17 -198 3 -46 9 -79
12 -74 3 6 6 -20 7 -56 0 -75 12 -235 19 -269 3 -12 12 -91 20 -175 23 -233
22 -228 56 -228 26 0 28 3 24 28 -7 37 -35 303 -40 382 -7 110 22 -92 35 -240
15 -174 14 -170 56 -170 l35 0 -5 43 c-3 23 -13 110 -21 192 -9 83 -20 172
-25 200 -4 27 -7 80 -7 118 l2 68 -35 -6 c-19 -4 -44 -9 -55 -11 -19 -5 -22 7
-53 283 -18 158 -34 299 -36 313 -2 14 -4 40 -4 58 -1 17 -5 32 -9 32 -5 0 -7
-39 -6 -87z m126 -685 c3 -21 2 -38 -4 -38 -5 0 -9 19 -9 42 0 49 5 47 13 -4z"/>
<path d="M5901 1214 c0 -11 3 -14 6 -6 3 7 2 16 -1 19 -3 4 -6 -2 -5 -13z"/>
<path d="M5573 1160 c0 -25 2 -35 4 -22 2 12 2 32 0 45 -2 12 -4 2 -4 -23z"/>
<path d="M5573 840 c0 -25 2 -35 4 -22 2 12 2 32 0 45 -2 12 -4 2 -4 -23z"/>
<path d="M430 705 c0 -8 2 -15 4 -15 2 0 6 7 10 15 3 8 1 15 -4 15 -6 0 -10
-7 -10 -15z"/>
</g>
</svg>
