<?xml version="1.0" standalone="no"?>
<!DOCTYPE svg PUBLIC "-//W3C//DTD SVG 20010904//EN"
 "http://www.w3.org/TR/2001/REC-SVG-20010904/DTD/svg10.dtd">
<svg version="1.0" xmlns="http://www.w3.org/2000/svg"
 width="300.000000pt" height="113.000000pt" viewBox="0 0 300.000000 113.000000"
 preserveAspectRatio="xMidYMid meet">
<metadata>
Created by potrace 1.10, written by Peter Selinger 2001-2011
</metadata>
<g transform="translate(0.000000,113.000000) scale(0.100000,-0.100000)"
fill="#161717" stroke="none">
<path d="M440 1016 c-80 -21 -144 -59 -211 -126 -200 -197 -194 -509 14 -696
240 -215 609 -142 753 150 l39 80 0 125 c0 125 0 127 -37 204 -63 131 -177
227 -313 263 -62 17 -185 17 -245 0z m201 -26 c132 -25 251 -112 312 -228 201
-381 -190 -793 -580 -612 -235 109 -324 405 -190 633 34 57 123 138 184 168
88 43 182 56 274 39z"/>
<path d="M507 783 c-14 -14 -6 -24 38 -44 69 -32 53 -45 -52 -40 -76 3 -96 0
-131 -18 -50 -26 -72 -64 -72 -128 1 -202 270 -309 455 -183 56 39 95 112 95
181 l0 53 -27 -26 c-39 -36 -123 -88 -144 -88 -9 0 -22 7 -29 15 -10 12 -5 23
24 64 20 27 54 65 77 86 45 41 46 38 -27 85 -52 33 -189 62 -207 43z m171 -54
c23 -10 45 -24 48 -32 2 -7 -14 -33 -36 -58 -23 -24 -48 -54 -57 -66 -8 -13
-26 -23 -38 -23 -14 0 -38 -16 -61 -40 -22 -23 -47 -40 -60 -40 -31 0 -41 -35
-19 -60 25 -27 79 -43 123 -35 43 7 58 17 92 62 14 18 51 48 83 67 52 31 57
33 57 15 0 -43 -41 -100 -96 -135 -49 -32 -65 -36 -131 -39 -41 -2 -89 1 -106
7 -120 41 -190 162 -150 258 15 35 32 47 82 59 l43 9 -21 -22 c-12 -12 -21
-34 -21 -48 0 -67 97 -91 150 -38 21 21 27 65 10 75 -15 9 -12 25 5 25 8 0 19
9 25 21 9 16 8 26 -5 45 -16 24 -16 25 12 18 15 -3 47 -15 71 -25z m-130 -91
c31 -25 -6 -68 -58 -68 -43 0 -65 20 -55 49 11 36 77 47 113 19z m62 -118 c0
-6 12 -23 26 -37 l27 -27 -32 -28 c-39 -35 -100 -38 -148 -8 -40 24 -41 29 -7
22 21 -4 34 4 68 42 41 44 66 58 66 36z"/>
<path d="M2243 743 c-10 -3 -13 -43 -13 -149 0 -121 2 -144 15 -144 13 0 15
23 15 150 0 83 -1 150 -2 149 -2 0 -9 -3 -15 -6z"/>
<path d="M2510 670 c0 -11 -4 -20 -10 -20 -5 0 -10 -7 -10 -16 0 -8 5 -12 10
-9 6 4 10 -21 10 -68 0 -61 3 -77 20 -92 16 -14 25 -16 42 -8 24 11 24 12 -27
28 -13 4 -15 18 -13 72 3 64 4 68 26 65 15 -2 22 2 22 12 0 10 -9 16 -26 16
-21 0 -24 4 -19 20 5 14 2 20 -9 20 -9 0 -16 -9 -16 -20z"/>
<path d="M2640 670 c0 -11 -4 -20 -10 -20 -5 0 -10 -7 -10 -16 0 -8 5 -12 10
-9 6 4 10 -21 10 -69 0 -78 15 -110 48 -104 25 5 25 26 0 30 -21 3 -23 8 -26
76 l-3 73 26 -7 c19 -5 25 -2 25 10 0 10 -9 16 -25 16 -18 0 -25 5 -25 20 0
11 -4 20 -10 20 -5 0 -10 -9 -10 -20z"/>
<path d="M1230 550 c0 -82 3 -100 15 -100 12 0 15 16 15 85 0 47 3 85 8 85 4
0 16 3 28 6 38 10 54 -19 54 -102 0 -43 4 -74 10 -74 6 0 10 35 10 84 0 83 0
84 27 89 53 10 63 -5 63 -93 0 -67 3 -80 16 -80 11 0 14 5 10 16 -3 9 -6 49
-6 90 0 70 -2 75 -25 86 -19 8 -35 8 -62 0 -26 -8 -40 -8 -50 0 -13 10 -41 8
-77 -7 -14 -6 -17 -5 -12 3 4 7 1 12 -8 12 -13 0 -16 -16 -16 -100z"/>
<path d="M1530 644 c0 -4 16 -51 35 -105 l36 -98 -21 -41 c-16 -30 -17 -40 -7
-40 11 0 137 261 137 284 0 3 -6 6 -12 6 -7 0 -29 -41 -49 -91 l-36 -91 -28
91 c-17 56 -33 91 -42 91 -7 0 -13 -3 -13 -6z"/>
<path d="M1873 642 c-17 -11 -23 -282 -5 -282 8 0 12 16 12 49 0 43 2 49 19
44 28 -7 86 24 100 53 33 73 -5 144 -76 144 -21 0 -43 -4 -50 -8z m89 -29 c25
-22 25 -94 0 -116 -10 -9 -33 -20 -50 -23 l-32 -6 0 74 c0 41 3 78 7 81 12 13
56 7 75 -10z"/>
<path d="M2078 638 c-30 -10 -39 -33 -10 -24 56 17 70 17 86 1 9 -9 16 -27 16
-41 0 -21 -5 -24 -35 -24 -75 0 -116 -44 -76 -83 19 -19 25 -20 63 -10 26 7
44 8 46 2 2 -5 8 -9 13 -9 5 0 9 38 9 84 0 76 -2 86 -22 100 -25 18 -50 19
-90 4z m92 -128 c0 -25 -4 -30 -35 -36 -44 -8 -65 0 -65 25 0 14 9 23 28 27
15 3 32 7 37 9 27 9 35 3 35 -25z"/>
<path d="M2329 622 c-26 -23 -31 -35 -31 -76 -1 -42 3 -53 26 -73 29 -24 44
-27 95 -17 49 10 36 24 -21 22 -56 -1 -78 16 -78 60 0 23 2 24 70 20 67 -3 70
-2 70 20 0 31 -43 72 -74 72 -14 0 -40 -12 -57 -28z m91 -12 c32 -32 24 -40
-40 -40 -58 0 -60 1 -50 21 10 18 40 36 63 38 4 1 16 -8 27 -19z"/>
<path d="M2785 627 c-35 -29 -46 -104 -22 -141 19 -28 63 -41 107 -31 50 11
36 30 -18 27 -53 -4 -66 5 -77 51 l-8 29 72 -4 71 -3 0 28 c0 61 -75 88 -125
44z m83 -13 c40 -28 28 -44 -33 -44 -61 0 -68 9 -29 39 32 25 33 25 62 5z"/>
</g>
</svg>
