<?xml version="1.0" standalone="no"?>
<!DOCTYPE svg PUBLIC "-//W3C//DTD SVG 20010904//EN"
 "http://www.w3.org/TR/2001/REC-SVG-20010904/DTD/svg10.dtd">
<svg version="1.0" xmlns="http://www.w3.org/2000/svg"
 width="900.000000pt" height="339.000000pt" viewBox="0 0 900.000000 339.000000"
 preserveAspectRatio="xMidYMid meet">
<metadata>
Created by potrace 1.10, written by Peter Selinger 2001-2011
</metadata>
<g transform="translate(0.000000,339.000000) scale(0.100000,-0.100000)"
fill="#161717" stroke="none">
<path d="M1485 3070 c-22 -5 -69 -13 -104 -19 -35 -7 -72 -16 -82 -21 -10 -6
-26 -10 -36 -10 -10 0 -31 -7 -47 -15 -15 -8 -33 -15 -38 -15 -5 0 -30 -9 -56
-21 -190 -83 -316 -169 -463 -319 -90 -91 -110 -117 -196 -245 -64 -95 -150
-295 -174 -405 -24 -106 -28 -135 -39 -243 -10 -92 -10 -143 -1 -230 16 -149
54 -316 90 -402 54 -129 136 -274 207 -367 125 -161 352 -344 521 -418 26 -12
57 -25 68 -30 11 -5 49 -19 85 -30 36 -11 80 -25 98 -31 18 -6 61 -15 95 -21
34 -5 85 -13 112 -18 28 -5 95 -9 150 -9 91 -1 134 4 280 28 71 12 178 41 190
52 5 5 15 9 23 9 8 0 28 6 45 14 197 89 259 127 395 240 212 176 386 446 455
706 8 30 20 75 27 100 7 26 14 136 17 258 5 218 -1 279 -41 412 -8 25 -17 60
-21 77 -4 18 -11 35 -16 38 -5 4 -9 14 -9 23 0 21 -84 192 -124 252 -175 264
-394 449 -666 563 -77 32 -213 74 -265 81 -22 3 -60 10 -85 15 -53 12 -337 12
-395 1z m380 -96 c95 -15 155 -29 255 -62 70 -22 166 -66 235 -106 288 -170
522 -468 612 -781 51 -177 68 -448 38 -605 -18 -94 -41 -179 -62 -227 -7 -17
-13 -36 -13 -42 0 -6 -4 -19 -9 -29 -5 -9 -20 -39 -34 -67 -14 -27 -34 -66
-46 -85 -11 -19 -24 -42 -28 -50 -10 -23 -117 -160 -155 -200 -47 -49 -128
-121 -162 -145 -15 -11 -33 -25 -40 -30 -47 -44 -252 -148 -351 -179 -109 -34
-165 -46 -293 -61 -123 -16 -142 -16 -260 0 -205 26 -304 55 -469 136 -214
105 -431 304 -549 504 -78 134 -126 254 -171 430 -25 101 -25 430 0 530 25 94
48 176 58 200 26 65 51 123 61 140 6 10 20 37 32 60 83 156 238 322 432 462
77 57 258 137 394 176 160 46 360 58 525 31z"/>
<path d="M1533 2338 c-24 -8 -33 -17 -32 -32 0 -28 38 -55 132 -96 74 -32 132
-80 124 -103 -5 -16 -69 -47 -97 -47 -14 0 -57 7 -95 15 -40 8 -123 15 -195
15 -139 0 -221 -17 -309 -65 -54 -30 -141 -111 -141 -132 0 -7 -4 -13 -9 -13
-5 0 -13 -10 -16 -22 -4 -13 -13 -38 -22 -57 -19 -42 -16 -292 5 -313 6 -6 12
-20 12 -30 0 -22 60 -137 98 -188 65 -88 194 -195 292 -242 66 -31 108 -48
122 -48 7 0 33 -8 58 -17 65 -23 385 -23 450 0 25 9 52 17 61 17 22 0 118 41
199 85 50 28 146 112 193 170 50 62 93 143 124 230 18 52 26 241 11 278 -10
22 -24 15 -93 -48 -27 -25 -68 -58 -90 -73 -22 -15 -42 -30 -45 -33 -6 -8
-108 -64 -181 -100 -85 -42 -104 -45 -142 -19 -32 22 -67 70 -67 91 0 9 114
165 130 179 3 3 23 28 45 55 22 28 89 98 149 157 l109 108 -46 44 c-122 119
-324 206 -548 235 -100 13 -142 13 -186 -1z m32 -389 c60 -16 105 -64 105
-111 0 -102 -123 -166 -273 -144 -64 10 -117 64 -117 119 0 35 6 47 44 82 61
59 149 79 241 54z m280 -434 c23 -45 42 -67 77 -90 32 -20 47 -37 47 -52 1
-33 -90 -126 -156 -159 -52 -27 -65 -29 -162 -29 -99 1 -110 3 -172 34 -82 41
-125 74 -115 89 4 7 33 12 69 12 93 0 118 19 210 160 34 53 50 68 87 82 68 26
81 21 115 -47z"/>
<path d="M6705 2204 c-10 -4 -11 -805 0 -832 3 -7 15 -12 27 -10 l23 3 3 423
2 422 -22 -1 c-13 0 -27 -2 -33 -5z"/>
<path d="M7530 2031 c-5 -11 -10 -38 -10 -60 0 -33 -3 -41 -19 -41 -10 0 -24
-6 -30 -14 -16 -20 -3 -46 24 -46 l24 0 3 -209 3 -209 31 -39 c24 -29 41 -40
77 -47 60 -12 100 4 95 37 -3 19 -8 21 -37 19 -98 -10 -111 18 -111 246 0 119
4 173 13 185 8 11 30 17 67 19 52 3 55 5 58 31 3 27 3 27 -56 27 -68 0 -82 10
-80 62 1 19 -2 40 -6 46 -11 18 -34 14 -46 -7z"/>
<path d="M7922 2038 c-6 -7 -12 -33 -14 -58 -3 -38 -7 -45 -28 -50 -18 -4 -25
-13 -25 -30 0 -17 7 -26 25 -30 l25 -6 5 -209 c5 -199 6 -212 28 -242 29 -41
87 -60 140 -47 27 7 37 14 37 29 0 17 -8 21 -57 25 -88 8 -88 8 -85 245 l2
200 57 5 c65 6 88 21 69 44 -8 9 -34 16 -69 18 l-57 3 -5 55 c-5 57 -24 76
-48 48z"/>
<path d="M5670 1929 c-19 -5 -48 -13 -65 -17 l-30 -8 0 -414 0 -415 25 0 25 0
3 143 3 142 58 0 c90 0 159 17 203 49 78 57 118 145 118 259 0 127 -44 212
-129 248 -45 19 -164 27 -211 13z m188 -73 c50 -31 70 -64 84 -132 13 -64 -2
-168 -30 -213 -24 -38 -68 -73 -116 -93 -48 -20 -137 -23 -154 -6 -9 9 -12 74
-12 229 l0 217 28 10 c15 6 57 11 95 11 55 1 74 -3 105 -23z"/>
<path d="M3692 1648 l3 -283 25 0 25 0 5 227 c4 185 8 230 20 241 8 8 43 22
76 32 59 17 64 17 109 0 77 -30 79 -38 85 -285 l5 -215 25 0 25 0 3 229 c1
137 6 234 13 242 5 6 39 20 74 29 61 17 67 17 109 1 74 -28 76 -37 76 -270 0
-112 3 -211 6 -220 8 -20 40 -21 51 -2 4 8 6 119 3 248 -5 227 -6 234 -28 256
-28 28 -92 52 -139 52 -41 0 -140 -27 -148 -41 -10 -15 -35 -11 -84 13 -71 34
-137 35 -204 3 -60 -28 -77 -27 -77 6 0 15 -7 19 -30 19 l-30 0 2 -282z"/>
<path d="M4590 1913 c0 -16 20 -81 37 -123 14 -34 65 -178 74 -210 6 -19 15
-39 20 -45 5 -5 9 -17 9 -27 0 -18 18 -65 52 -133 l20 -41 -21 -49 c-33 -74
-52 -117 -68 -147 -19 -38 -17 -68 6 -68 23 0 32 11 61 80 24 58 62 145 85
195 40 87 75 166 75 169 0 4 35 83 75 171 8 17 26 57 40 90 15 33 33 73 41 89
20 42 18 66 -6 66 -24 0 -60 -33 -60 -55 0 -8 -4 -23 -10 -33 -5 -9 -19 -39
-30 -67 -12 -27 -25 -59 -30 -70 -5 -11 -32 -76 -61 -145 -28 -69 -55 -129
-59 -134 -5 -4 -15 2 -23 15 -16 25 -57 140 -57 160 0 6 -6 25 -13 42 -8 18
-29 79 -46 137 -48 154 -46 150 -81 150 -22 0 -30 -5 -30 -17z"/>
<path d="M6265 1914 c-27 -7 -58 -18 -67 -24 -10 -5 -24 -10 -32 -10 -18 0
-27 -23 -16 -40 7 -11 22 -9 79 9 99 31 136 36 173 21 67 -27 98 -77 98 -159
0 -57 -12 -71 -64 -71 -80 -1 -224 -36 -261 -64 -54 -42 -61 -140 -12 -183 41
-37 98 -46 181 -28 41 8 87 20 101 27 22 10 28 8 48 -10 30 -28 55 -28 62 1 4
13 5 118 3 233 l-3 211 -27 35 c-48 62 -149 82 -263 52z m223 -313 c9 -5 12
-29 10 -82 l-3 -74 -45 -22 c-35 -17 -64 -22 -126 -22 -73 -1 -84 2 -108 24
-26 24 -34 63 -20 100 10 24 60 46 149 65 94 20 125 23 143 11z"/>
<path d="M7057 1914 c-52 -19 -123 -88 -148 -144 -31 -68 -30 -238 1 -298 30
-57 75 -89 151 -109 54 -14 75 -14 144 -4 113 18 117 19 113 44 -3 24 -9 25
-134 12 -154 -16 -239 54 -232 190 l3 60 203 3 202 2 0 43 c0 97 -50 177 -127
204 -48 16 -126 15 -176 -3z m154 -55 c46 -16 67 -40 81 -94 11 -39 10 -47 -2
-55 -18 -11 -300 -13 -316 -2 -18 12 3 66 40 103 56 54 127 71 197 48z"/>
<path d="M8403 1904 c-104 -50 -159 -152 -157 -294 2 -146 63 -224 194 -250
118 -23 285 19 243 61 -9 9 -26 9 -69 0 -171 -34 -266 9 -298 136 -17 66 -14
88 15 103 10 6 101 10 203 10 l186 0 0 58 c0 59 -23 119 -60 154 -56 53 -172
63 -257 22z m181 -48 c47 -20 78 -67 74 -113 l-3 -38 -160 0 -160 0 -3 26 c-2
20 8 38 42 72 61 63 139 83 210 53z"/>
</g>
</svg>
