<?xml version="1.0" standalone="no"?>
<!DOCTYPE svg PUBLIC "-//W3C//DTD SVG 20010904//EN"
 "http://www.w3.org/TR/2001/REC-SVG-20010904/DTD/svg10.dtd">
<svg version="1.0" xmlns="http://www.w3.org/2000/svg"
 width="300.000000pt" height="229.000000pt" viewBox="0 0 300.000000 229.000000"
 preserveAspectRatio="xMidYMid meet">
<metadata>
Created by potrace 1.10, written by Peter Selinger 2001-2011
</metadata>
<g transform="translate(0.000000,229.000000) scale(0.100000,-0.100000)"
fill="#000000" stroke="none">
<path d="M1805 2203 c-168 -45 -387 -135 -547 -224 -105 -58 -107 -59 -186
-59 -57 0 -83 -4 -92 -15 -21 -25 -2 -35 56 -29 56 7 71 0 31 -15 -12 -5 -58
-35 -102 -68 -44 -32 -114 -82 -156 -110 -446 -301 -696 -681 -650 -990 31
-206 172 -372 418 -490 173 -84 291 -109 608 -133 144 -10 274 -17 291 -15 16
2 73 6 126 9 115 7 258 42 371 90 45 19 136 54 202 77 387 135 599 311 646
537 17 84 7 203 -26 292 -29 80 -39 137 -55 320 -13 152 -34 237 -82 339 -52
110 -167 229 -276 285 -81 42 -240 86 -311 86 -43 0 -47 3 -66 37 -29 53 -65
76 -127 79 -29 1 -62 0 -73 -3z m145 -68 c17 -16 30 -31 30 -35 0 -3 -36 -7
-80 -8 -153 -4 -356 -53 -553 -134 -54 -22 -101 -37 -104 -34 -12 12 338 167
502 222 95 32 164 29 205 -11z m58 -117 c5 -18 8 -34 8 -35 -1 -1 -22 3 -46 9
-25 6 -99 11 -165 11 -130 -1 -254 -23 -379 -68 -78 -28 -76 -28 -76 -17 0 10
167 65 265 87 110 26 234 43 312 44 l72 1 9 -32z m220 1 c251 -67 426 -270
466 -539 l7 -45 -35 63 c-98 178 -296 352 -493 431 -43 18 -88 36 -100 41 -13
5 -23 18 -23 29 0 11 -3 27 -7 37 -6 15 0 16 53 10 32 -4 92 -16 132 -27z
m-268 -73 c62 -10 65 -12 68 -41 5 -54 12 -75 27 -75 22 0 27 17 16 56 -10 36
-10 36 17 30 50 -12 207 -94 272 -144 84 -64 216 -204 258 -275 45 -74 81
-165 82 -201 0 -26 -5 -22 -52 45 -109 155 -299 310 -489 397 -173 80 -429
148 -601 159 -49 3 -88 9 -88 14 0 4 44 15 98 24 53 9 104 18 112 20 36 7 221
2 280 -9z m-779 -117 c-331 -178 -619 -464 -743 -736 -16 -36 -31 -63 -34 -60
-8 7 43 136 82 206 92 167 289 378 448 479 77 49 301 162 321 162 11 0 -22
-23 -74 -51z m474 11 c376 -64 681 -210 876 -418 69 -73 159 -205 159 -232 0
-32 -49 -207 -80 -287 -74 -187 -128 -261 -270 -373 -295 -233 -701 -389
-1060 -407 -100 -5 -126 -3 -200 17 -212 58 -357 136 -480 260 -94 94 -139
162 -177 272 -39 109 -38 198 5 303 75 183 195 356 359 516 158 154 289 248
468 336 l90 45 95 -6 c52 -3 149 -14 215 -26z m-1059 -382 c-122 -149 -189
-267 -226 -398 -25 -92 -42 -325 -29 -416 18 -127 71 -226 174 -323 35 -32 87
-72 115 -87 29 -16 47 -30 41 -32 -6 -2 -46 15 -89 38 -228 123 -354 275 -383
460 -32 204 87 454 337 713 78 80 106 101 60 45z m2112 -429 c-18 -70 -46
-135 -53 -127 -2 2 4 28 15 58 11 30 24 74 30 98 6 23 15 42 19 42 5 0 0 -32
-11 -71z m75 -154 c1 -110 -20 -176 -88 -270 -78 -109 -199 -195 -412 -292
-98 -44 -119 -44 -54 1 62 43 188 180 304 331 109 142 191 285 202 353 11 66
17 69 32 17 8 -27 15 -90 16 -140z m-2384 -261 c26 -71 85 -158 155 -229 79
-80 152 -132 274 -195 45 -24 82 -45 82 -47 0 -5 -54 9 -60 16 -3 4 -44 25
-92 48 -204 97 -308 202 -364 366 -27 80 -27 77 -16 77 4 0 14 -16 21 -36z
m1888 -199 c-94 -89 -227 -180 -294 -200 -64 -19 -311 -75 -331 -75 -28 0 -6
9 84 35 177 52 428 176 545 270 84 68 82 52 -4 -30z m-627 -294 c0 -10 -98
-26 -107 -17 -9 9 38 25 75 25 17 1 32 -3 32 -8z"/>
</g>
</svg>
